<svg width="1440" height="1024" viewBox="0 0 1440 1024" fill="none" xmlns="http://www.w3.org/2000/svg">
<rect width="1440" height="1024" fill="white"/>
<path d="M325 750.514H266.962V809H262.351V750.514H202L260.425 553L325 750.514Z" fill="#83AD80"/>
<path d="M202 710.286H135.468V769H130.183V710.286H61L127.975 512L202 710.286Z" fill="#688A67"/>
<path d="M1387 371.41H1309.35V446H1303.08V371.41H1220L1299.32 111L1387 371.41Z" fill="#83AD80"/>
<path d="M1266 390.256H1192.86V446H1187.05V390.256H1111L1184.63 202L1266 390.256Z" fill="#688A67"/>
<path d="M206 248.983H61C61.486 242.067 63.4145 235.359 66.641 229.362C69.8675 223.366 74.3085 218.235 79.6312 214.355C84.954 210.475 91.0206 207.946 97.3767 206.957C103.733 205.969 110.214 206.546 116.334 208.647C120.983 204.303 126.939 201.94 133.087 202.001C139.234 202.062 145.149 204.542 149.724 208.977C155.877 206.697 162.432 205.97 168.886 206.853C175.339 207.735 181.52 210.204 186.953 214.068C192.385 217.933 196.926 223.091 200.225 229.147C203.524 235.202 205.494 241.994 205.984 249L206 248.983Z" fill="#C4C4C4"/>
<path d="M206 308.989H113C113.312 304.574 114.549 300.293 116.618 296.465C118.687 292.638 121.536 289.363 124.95 286.886C128.364 284.41 132.255 282.795 136.331 282.164C140.408 281.533 144.565 281.902 148.49 283.243C151.472 280.47 155.292 278.962 159.235 279.001C163.177 279.04 166.971 280.623 169.906 283.454C173.852 281.998 178.056 281.534 182.196 282.097C186.335 282.661 190.299 284.236 193.783 286.703C197.268 289.17 200.18 292.463 202.296 296.328C204.412 300.193 205.675 304.528 205.99 309L206 308.989Z" fill="#C4C4C4"/>
<path d="M1266 768.999H1086C1086.6 761.051 1089 753.341 1093 746.449C1097.01 739.557 1102.52 733.66 1109.13 729.2C1115.74 724.741 1123.27 721.834 1131.16 720.698C1139.05 719.562 1147.09 720.225 1154.69 722.639C1160.46 717.647 1167.86 714.931 1175.49 715.001C1183.12 715.071 1190.46 717.922 1196.14 723.019C1203.78 720.398 1211.92 719.563 1219.93 720.577C1227.94 721.592 1235.61 724.429 1242.35 728.871C1249.1 733.313 1254.74 739.241 1258.83 746.201C1262.93 753.161 1265.37 760.967 1265.98 769.019L1266 768.999Z" fill="#C4C4C4"/>
<path d="M1346 852.984H1220C1220.42 846.509 1222.1 840.23 1224.9 834.616C1227.71 829.002 1231.56 824.199 1236.19 820.566C1240.82 816.934 1246.09 814.566 1251.61 813.641C1257.13 812.716 1262.76 813.256 1268.08 815.223C1272.12 811.156 1277.3 808.944 1282.64 809.001C1287.98 809.058 1293.12 811.38 1297.1 815.532C1302.44 813.397 1308.14 812.717 1313.75 813.543C1319.36 814.369 1324.73 816.68 1329.45 820.298C1334.17 823.916 1338.11 828.745 1340.98 834.414C1343.85 840.083 1345.56 846.441 1345.99 853L1346 852.984Z" fill="#C4C4C4"/>
</svg>
